<?xml version="1.0" encoding="utf-8"?>
<!-- Generator: Adobe Illustrator 16.0.0, SVG Export Plug-In . SVG Version: 6.00 Build 0)  -->
<!DOCTYPE svg PUBLIC "-//W3C//DTD SVG 1.1//EN" "http://www.w3.org/Graphics/SVG/1.1/DTD/svg11.dtd">
<svg version="1.1" id="Layer_1" xmlns="http://www.w3.org/2000/svg" xmlns:xlink="http://www.w3.org/1999/xlink" x="0px" y="0px"
	 width="3587px" height="403px" viewBox="0 0 3587 403" enable-background="new 0 0 3587 403" xml:space="preserve">
<text transform="matrix(1 0 0 1 550.2739 262.23)"><tspan x="0" y="0" font-family="'Calibri'" font-size="224" letter-spacing="43">F</tspan><tspan x="146.1" y="0" font-family="'Calibri'" font-size="224" letter-spacing="38">A</tspan><tspan x="320.4" y="0" font-family="'Calibri'" font-size="224" letter-spacing="56">THERHOOD</tspan><tspan x="1841.4" y="0" font-family="'Calibri'" font-size="224" letter-spacing="56"> FREN</tspan><tspan x="2650.6" y="0" font-family="'Calibri'" font-size="224" letter-spacing="55">Z</tspan><tspan x="2810.7" y="0" font-family="'Calibri'" font-size="224" letter-spacing="56">Y</tspan></text>
<g>
	<polyline points="175.1,109.5 74.5,109.5 47.3,65.2 187.5,65.2 313.4,138.8 378.9,138.8 353.9,185.2 301.6,185.2 	"/>
	<polygon points="190.2,129.2 235.3,156.2 185.7,185.2 138.3,185.2 111.1,139.1 173.1,139.3 	"/>
	<polygon points="416.5,110.5 315,110.5 298.1,120.4 251.7,93.1 302.4,65.2 442.4,65.2 	"/>
	<polygon points="189.1,194 235.3,168.1 235.3,354.7 189.1,275.3 	"/>
	<polygon points="297.8,194 251.7,168.1 251.7,354.7 297.8,275.3 	"/>
</g>
</svg>
